<svg width="24" height="24" viewBox="0 0 24 24" fill="none" xmlns="http://www.w3.org/2000/svg">
<path fill-rule="evenodd" clip-rule="evenodd" d="M17.5996 1.63266e-09C19.8398 1.63266e-09 20.9608 -0.000427067 21.8164 0.435547C22.5689 0.819016 23.181 1.43109 23.5645 2.18359C24.0004 3.03924 24 4.16018 24 6.40039V11.2002C24 15.6805 23.9999 17.9206 23.1279 19.6318C22.3609 21.1371 21.1371 22.3609 19.6318 23.1279C17.9206 23.9999 15.6805 24 11.2002 24H6.40039C4.16018 24 3.03924 24.0004 2.18359 23.5645C1.43109 23.181 0.819016 22.5689 0.435547 21.8164C-0.000427067 20.9608 1.633e-09 19.8398 1.633e-09 17.5996V12.7998C1.81702e-09 8.31953 0.000145555 6.07943 0.87207 4.36816C1.63906 2.86287 2.86287 1.63906 4.36816 0.87207C6.07943 0.000145614 8.31953 1.81803e-09 12.7998 1.63266e-09H17.5996ZM12 6C8.68629 6 6 8.68629 6 12C6 15.3137 8.68629 18 12 18C15.3137 18 18 15.3137 18 12C18 8.68629 15.3137 6 12 6Z" fill="white"/>
<path fill-rule="evenodd" clip-rule="evenodd" d="M17.5996 1.63266e-09C19.8398 1.63266e-09 20.9608 -0.000427067 21.8164 0.435547C22.5689 0.819016 23.181 1.43109 23.5645 2.18359C24.0004 3.03924 24 4.16018 24 6.40039V11.2002C24 15.6805 23.9999 17.9206 23.1279 19.6318C22.3609 21.1371 21.1371 22.3609 19.6318 23.1279C17.9206 23.9999 15.6805 24 11.2002 24H6.40039C4.16018 24 3.03924 24.0004 2.18359 23.5645C1.43109 23.181 0.819016 22.5689 0.435547 21.8164C-0.000427067 20.9608 1.633e-09 19.8398 1.633e-09 17.5996V12.7998C1.81702e-09 8.31953 0.000145555 6.07943 0.87207 4.36816C1.63906 2.86287 2.86287 1.63906 4.36816 0.87207C6.07943 0.000145614 8.31953 1.81803e-09 12.7998 1.63266e-09H17.5996ZM12 6C8.68629 6 6 8.68629 6 12C6 15.3137 8.68629 18 12 18C15.3137 18 18 15.3137 18 12C18 8.68629 15.3137 6 12 6Z" fill="url(#paint0_linear_588_6732)"/>
<path fill-rule="evenodd" clip-rule="evenodd" d="M17.5996 1.63266e-09C19.8398 1.63266e-09 20.9608 -0.000427067 21.8164 0.435547C22.5689 0.819016 23.181 1.43109 23.5645 2.18359C24.0004 3.03924 24 4.16018 24 6.40039V11.2002C24 15.6805 23.9999 17.9206 23.1279 19.6318C22.3609 21.1371 21.1371 22.3609 19.6318 23.1279C17.9206 23.9999 15.6805 24 11.2002 24H6.40039C4.16018 24 3.03924 24.0004 2.18359 23.5645C1.43109 23.181 0.819016 22.5689 0.435547 21.8164C-0.000427067 20.9608 1.633e-09 19.8398 1.633e-09 17.5996V12.7998C1.81702e-09 8.31953 0.000145555 6.07943 0.87207 4.36816C1.63906 2.86287 2.86287 1.63906 4.36816 0.87207C6.07943 0.000145614 8.31953 1.81803e-09 12.7998 1.63266e-09H17.5996ZM12 6C8.68629 6 6 8.68629 6 12C6 15.3137 8.68629 18 12 18C15.3137 18 18 15.3137 18 12C18 8.68629 15.3137 6 12 6Z" fill="url(#paint1_linear_588_6732)" style="mix-blend-mode:multiply"/>
<defs>
<linearGradient id="paint0_linear_588_6732" x1="4.2" y1="3.2" x2="24.6568" y2="20.0242" gradientUnits="userSpaceOnUse">
<stop stop-color="#8591D4"/>
<stop offset="1" stop-color="#E0E0E0" stop-opacity="0"/>
</linearGradient>
<linearGradient id="paint1_linear_588_6732" x1="5" y1="26.4" x2="15.7003" y2="1.56272" gradientUnits="userSpaceOnUse">
<stop stop-color="#E0E0E0" stop-opacity="0"/>
<stop offset="1" stop-color="#FFAC86"/>
</linearGradient>
</defs>
</svg>
